<mxfile host="app.diagrams.net" agent="Mozilla/5.0 (Windows NT 10.0; Win64; x64) AppleWebKit/537.36 (KHTML, like Gecko) Chrome/139.0.0.0 Safari/537.36" version="28.0.7">
  <diagram name="Страница — 1" id="1tB0Kznd3mkGn6875xZd">
    <mxGraphModel dx="4789" dy="890" grid="1" gridSize="10" guides="1" tooltips="1" connect="1" arrows="1" fold="1" page="1" pageScale="1" pageWidth="3300" pageHeight="4681" math="0" shadow="0">
      <root>
        <mxCell id="0" />
        <mxCell id="1" parent="0" />
        <mxCell id="--CWS9bQHItolgk0J9HZ-13" value="" style="rounded=1;whiteSpace=wrap;html=1;" vertex="1" parent="1">
          <mxGeometry x="200" y="1150" width="640" height="570" as="geometry" />
        </mxCell>
        <mxCell id="DCITLNQzlGKikIkjDxra-4" style="edgeStyle=orthogonalEdgeStyle;rounded=0;orthogonalLoop=1;jettySize=auto;html=1;entryX=0.5;entryY=0;entryDx=0;entryDy=0;" parent="1" source="DCITLNQzlGKikIkjDxra-1" target="DCITLNQzlGKikIkjDxra-3" edge="1">
          <mxGeometry relative="1" as="geometry" />
        </mxCell>
        <mxCell id="DCITLNQzlGKikIkjDxra-6" value="&lt;b&gt;REST&lt;/b&gt;" style="edgeLabel;html=1;align=center;verticalAlign=middle;resizable=0;points=[];" parent="DCITLNQzlGKikIkjDxra-4" vertex="1" connectable="0">
          <mxGeometry x="-0.0857" y="-3" relative="1" as="geometry">
            <mxPoint as="offset" />
          </mxGeometry>
        </mxCell>
        <mxCell id="DCITLNQzlGKikIkjDxra-1" value="User" style="rounded=1;whiteSpace=wrap;html=1;" parent="1" vertex="1">
          <mxGeometry x="120" y="40" width="120" height="60" as="geometry" />
        </mxCell>
        <mxCell id="--CWS9bQHItolgk0J9HZ-41" style="edgeStyle=orthogonalEdgeStyle;rounded=0;orthogonalLoop=1;jettySize=auto;html=1;entryX=0.5;entryY=0;entryDx=0;entryDy=0;" edge="1" parent="1" source="DCITLNQzlGKikIkjDxra-2" target="DCITLNQzlGKikIkjDxra-21">
          <mxGeometry relative="1" as="geometry" />
        </mxCell>
        <mxCell id="--CWS9bQHItolgk0J9HZ-42" style="edgeStyle=orthogonalEdgeStyle;rounded=0;orthogonalLoop=1;jettySize=auto;html=1;entryX=0.5;entryY=0;entryDx=0;entryDy=0;" edge="1" parent="1" source="DCITLNQzlGKikIkjDxra-2" target="--CWS9bQHItolgk0J9HZ-30">
          <mxGeometry relative="1" as="geometry">
            <Array as="points">
              <mxPoint x="180" y="640" />
              <mxPoint x="380" y="640" />
            </Array>
          </mxGeometry>
        </mxCell>
        <mxCell id="--CWS9bQHItolgk0J9HZ-44" style="edgeStyle=orthogonalEdgeStyle;rounded=0;orthogonalLoop=1;jettySize=auto;html=1;entryX=0.5;entryY=0;entryDx=0;entryDy=0;" edge="1" parent="1" source="DCITLNQzlGKikIkjDxra-2" target="--CWS9bQHItolgk0J9HZ-36">
          <mxGeometry relative="1" as="geometry">
            <Array as="points">
              <mxPoint x="180" y="640" />
              <mxPoint x="-510" y="640" />
            </Array>
          </mxGeometry>
        </mxCell>
        <mxCell id="--CWS9bQHItolgk0J9HZ-45" style="edgeStyle=orthogonalEdgeStyle;rounded=0;orthogonalLoop=1;jettySize=auto;html=1;entryX=0;entryY=0.5;entryDx=0;entryDy=0;" edge="1" parent="1" source="DCITLNQzlGKikIkjDxra-2" target="--CWS9bQHItolgk0J9HZ-1">
          <mxGeometry relative="1" as="geometry">
            <Array as="points">
              <mxPoint x="180" y="440" />
              <mxPoint x="100" y="440" />
              <mxPoint x="100" y="1440" />
            </Array>
          </mxGeometry>
        </mxCell>
        <mxCell id="--CWS9bQHItolgk0J9HZ-47" value="получение «signed URLs»" style="edgeLabel;html=1;align=center;verticalAlign=middle;resizable=0;points=[];" vertex="1" connectable="0" parent="--CWS9bQHItolgk0J9HZ-45">
          <mxGeometry x="0.354" relative="1" as="geometry">
            <mxPoint y="-1" as="offset" />
          </mxGeometry>
        </mxCell>
        <mxCell id="--CWS9bQHItolgk0J9HZ-78" style="edgeStyle=orthogonalEdgeStyle;rounded=0;orthogonalLoop=1;jettySize=auto;html=1;entryX=0.5;entryY=0;entryDx=0;entryDy=0;" edge="1" parent="1" source="DCITLNQzlGKikIkjDxra-2" target="--CWS9bQHItolgk0J9HZ-31">
          <mxGeometry relative="1" as="geometry">
            <Array as="points">
              <mxPoint x="180" y="380" />
              <mxPoint x="-860" y="380" />
            </Array>
          </mxGeometry>
        </mxCell>
        <mxCell id="DCITLNQzlGKikIkjDxra-2" value="API Gateway" style="rounded=0;whiteSpace=wrap;html=1;" parent="1" vertex="1">
          <mxGeometry x="120" y="300" width="120" height="60" as="geometry" />
        </mxCell>
        <mxCell id="--CWS9bQHItolgk0J9HZ-34" style="edgeStyle=orthogonalEdgeStyle;rounded=0;orthogonalLoop=1;jettySize=auto;html=1;entryX=0.5;entryY=0;entryDx=0;entryDy=0;" edge="1" parent="1" source="DCITLNQzlGKikIkjDxra-3" target="DCITLNQzlGKikIkjDxra-7">
          <mxGeometry relative="1" as="geometry" />
        </mxCell>
        <mxCell id="DCITLNQzlGKikIkjDxra-3" value="Balancer&lt;div&gt;&lt;strong data-end=&quot;1242&quot; data-start=&quot;1223&quot;&gt;NGINX / HAProxy (балансировки API)&lt;/strong&gt;&lt;/div&gt;" style="rounded=0;whiteSpace=wrap;html=1;" parent="1" vertex="1">
          <mxGeometry x="120" y="170" width="120" height="60" as="geometry" />
        </mxCell>
        <mxCell id="DCITLNQzlGKikIkjDxra-14" style="edgeStyle=orthogonalEdgeStyle;rounded=0;orthogonalLoop=1;jettySize=auto;html=1;entryX=0.5;entryY=0;entryDx=0;entryDy=0;" parent="1" source="DCITLNQzlGKikIkjDxra-7" target="DCITLNQzlGKikIkjDxra-13" edge="1">
          <mxGeometry relative="1" as="geometry" />
        </mxCell>
        <mxCell id="DCITLNQzlGKikIkjDxra-15" value="JWT, OAuth" style="edgeLabel;html=1;align=center;verticalAlign=middle;resizable=0;points=[];" parent="DCITLNQzlGKikIkjDxra-14" vertex="1" connectable="0">
          <mxGeometry x="-0.2167" y="2" relative="1" as="geometry">
            <mxPoint y="1" as="offset" />
          </mxGeometry>
        </mxCell>
        <mxCell id="DCITLNQzlGKikIkjDxra-31" style="edgeStyle=orthogonalEdgeStyle;rounded=0;orthogonalLoop=1;jettySize=auto;html=1;entryX=1;entryY=0.5;entryDx=0;entryDy=0;" parent="1" source="DCITLNQzlGKikIkjDxra-7" target="DCITLNQzlGKikIkjDxra-30" edge="1">
          <mxGeometry relative="1" as="geometry" />
        </mxCell>
        <mxCell id="DCITLNQzlGKikIkjDxra-7" value="Authentication Svc (Role-based Access Control)" style="rounded=0;whiteSpace=wrap;html=1;" parent="1" vertex="1">
          <mxGeometry x="-160" y="280" width="120" height="60" as="geometry" />
        </mxCell>
        <mxCell id="--CWS9bQHItolgk0J9HZ-82" style="edgeStyle=orthogonalEdgeStyle;rounded=0;orthogonalLoop=1;jettySize=auto;html=1;exitX=0;exitY=0.5;exitDx=0;exitDy=0;entryX=1;entryY=0.5;entryDx=0;entryDy=0;" edge="1" parent="1" source="DCITLNQzlGKikIkjDxra-10" target="DCITLNQzlGKikIkjDxra-2">
          <mxGeometry relative="1" as="geometry" />
        </mxCell>
        <mxCell id="DCITLNQzlGKikIkjDxra-10" value="Rate Limiter" style="rounded=0;whiteSpace=wrap;html=1;" parent="1" vertex="1">
          <mxGeometry x="390" y="300" width="120" height="60" as="geometry" />
        </mxCell>
        <mxCell id="DCITLNQzlGKikIkjDxra-17" style="edgeStyle=orthogonalEdgeStyle;rounded=0;orthogonalLoop=1;jettySize=auto;html=1;entryX=0.5;entryY=0;entryDx=0;entryDy=0;" parent="1" source="DCITLNQzlGKikIkjDxra-13" target="DCITLNQzlGKikIkjDxra-16" edge="1">
          <mxGeometry relative="1" as="geometry" />
        </mxCell>
        <mxCell id="DCITLNQzlGKikIkjDxra-18" value="HTML/CSS/JS через CDN" style="edgeLabel;html=1;align=center;verticalAlign=middle;resizable=0;points=[];" parent="DCITLNQzlGKikIkjDxra-17" vertex="1" connectable="0">
          <mxGeometry x="0.0571" relative="1" as="geometry">
            <mxPoint as="offset" />
          </mxGeometry>
        </mxCell>
        <mxCell id="DCITLNQzlGKikIkjDxra-13" value="CDN&amp;nbsp;&lt;div&gt;(для UI/статических данных, только Front UI-статические ресурсы)&lt;/div&gt;" style="rounded=0;whiteSpace=wrap;html=1;" parent="1" vertex="1">
          <mxGeometry x="-160" y="400" width="120" height="70" as="geometry" />
        </mxCell>
        <mxCell id="--CWS9bQHItolgk0J9HZ-35" style="edgeStyle=orthogonalEdgeStyle;rounded=0;orthogonalLoop=1;jettySize=auto;html=1;entryX=0.5;entryY=1;entryDx=0;entryDy=0;" edge="1" parent="1" source="DCITLNQzlGKikIkjDxra-16" target="DCITLNQzlGKikIkjDxra-10">
          <mxGeometry relative="1" as="geometry" />
        </mxCell>
        <mxCell id="DCITLNQzlGKikIkjDxra-16" value="Front UI" style="rounded=0;whiteSpace=wrap;html=1;" parent="1" vertex="1">
          <mxGeometry x="-160" y="520" width="120" height="60" as="geometry" />
        </mxCell>
        <mxCell id="--CWS9bQHItolgk0J9HZ-43" style="edgeStyle=orthogonalEdgeStyle;rounded=0;orthogonalLoop=1;jettySize=auto;html=1;entryX=0.5;entryY=0;entryDx=0;entryDy=0;" edge="1" parent="1" source="DCITLNQzlGKikIkjDxra-19" target="DCITLNQzlGKikIkjDxra-23">
          <mxGeometry relative="1" as="geometry" />
        </mxCell>
        <mxCell id="--CWS9bQHItolgk0J9HZ-57" style="edgeStyle=orthogonalEdgeStyle;rounded=0;orthogonalLoop=1;jettySize=auto;html=1;entryX=0.5;entryY=1;entryDx=0;entryDy=0;" edge="1" parent="1" source="DCITLNQzlGKikIkjDxra-19" target="DCITLNQzlGKikIkjDxra-28">
          <mxGeometry relative="1" as="geometry">
            <Array as="points">
              <mxPoint x="1450" y="490" />
              <mxPoint x="1450" y="1840" />
              <mxPoint x="-460" y="1840" />
            </Array>
          </mxGeometry>
        </mxCell>
        <mxCell id="--CWS9bQHItolgk0J9HZ-69" value="Notification service logging" style="edgeLabel;html=1;align=center;verticalAlign=middle;resizable=0;points=[];" vertex="1" connectable="0" parent="--CWS9bQHItolgk0J9HZ-57">
          <mxGeometry x="0.9725" relative="1" as="geometry">
            <mxPoint as="offset" />
          </mxGeometry>
        </mxCell>
        <mxCell id="--CWS9bQHItolgk0J9HZ-60" style="edgeStyle=orthogonalEdgeStyle;rounded=0;orthogonalLoop=1;jettySize=auto;html=1;entryX=0.5;entryY=1;entryDx=0;entryDy=0;" edge="1" parent="1" source="DCITLNQzlGKikIkjDxra-19" target="DCITLNQzlGKikIkjDxra-27">
          <mxGeometry relative="1" as="geometry">
            <Array as="points">
              <mxPoint x="1450" y="490" />
              <mxPoint x="1450" y="1840" />
              <mxPoint x="-660" y="1840" />
            </Array>
          </mxGeometry>
        </mxCell>
        <mxCell id="--CWS9bQHItolgk0J9HZ-70" value="Notification service monitoring" style="edgeLabel;html=1;align=center;verticalAlign=middle;resizable=0;points=[];" vertex="1" connectable="0" parent="--CWS9bQHItolgk0J9HZ-60">
          <mxGeometry x="0.964" y="1" relative="1" as="geometry">
            <mxPoint as="offset" />
          </mxGeometry>
        </mxCell>
        <mxCell id="DCITLNQzlGKikIkjDxra-19" value="Notification Service" style="rounded=0;whiteSpace=wrap;html=1;" parent="1" vertex="1">
          <mxGeometry x="860" y="460" width="120" height="60" as="geometry" />
        </mxCell>
        <mxCell id="DCITLNQzlGKikIkjDxra-40" style="edgeStyle=orthogonalEdgeStyle;rounded=0;orthogonalLoop=1;jettySize=auto;html=1;entryX=0.5;entryY=0;entryDx=0;entryDy=0;" parent="1" source="DCITLNQzlGKikIkjDxra-21" target="DCITLNQzlGKikIkjDxra-26" edge="1">
          <mxGeometry relative="1" as="geometry">
            <mxPoint x="-27.5" y="1150" as="targetPoint" />
            <Array as="points">
              <mxPoint x="180" y="1020" />
              <mxPoint x="-27" y="1020" />
            </Array>
          </mxGeometry>
        </mxCell>
        <mxCell id="--CWS9bQHItolgk0J9HZ-15" value="READ" style="edgeLabel;html=1;align=center;verticalAlign=middle;resizable=0;points=[];" vertex="1" connectable="0" parent="DCITLNQzlGKikIkjDxra-40">
          <mxGeometry x="0.1923" y="-2" relative="1" as="geometry">
            <mxPoint as="offset" />
          </mxGeometry>
        </mxCell>
        <mxCell id="--CWS9bQHItolgk0J9HZ-14" style="edgeStyle=orthogonalEdgeStyle;rounded=0;orthogonalLoop=1;jettySize=auto;html=1;entryX=0.5;entryY=0;entryDx=0;entryDy=0;" edge="1" parent="1" source="DCITLNQzlGKikIkjDxra-21" target="--CWS9bQHItolgk0J9HZ-13">
          <mxGeometry relative="1" as="geometry">
            <Array as="points">
              <mxPoint x="180" y="1020" />
              <mxPoint x="520" y="1020" />
            </Array>
          </mxGeometry>
        </mxCell>
        <mxCell id="--CWS9bQHItolgk0J9HZ-16" value="Write" style="edgeLabel;html=1;align=center;verticalAlign=middle;resizable=0;points=[];" vertex="1" connectable="0" parent="--CWS9bQHItolgk0J9HZ-14">
          <mxGeometry x="0.0926" y="5" relative="1" as="geometry">
            <mxPoint x="1" as="offset" />
          </mxGeometry>
        </mxCell>
        <mxCell id="--CWS9bQHItolgk0J9HZ-49" style="edgeStyle=orthogonalEdgeStyle;rounded=0;orthogonalLoop=1;jettySize=auto;html=1;entryX=0;entryY=0.5;entryDx=0;entryDy=0;" edge="1" parent="1" source="DCITLNQzlGKikIkjDxra-21" target="--CWS9bQHItolgk0J9HZ-38">
          <mxGeometry relative="1" as="geometry">
            <Array as="points">
              <mxPoint x="180" y="960" />
              <mxPoint x="715" y="960" />
              <mxPoint x="715" y="1090" />
            </Array>
          </mxGeometry>
        </mxCell>
        <mxCell id="--CWS9bQHItolgk0J9HZ-50" value="события изменения статуса заявки" style="edgeLabel;html=1;align=center;verticalAlign=middle;resizable=0;points=[];" vertex="1" connectable="0" parent="--CWS9bQHItolgk0J9HZ-49">
          <mxGeometry x="-0.2267" relative="1" as="geometry">
            <mxPoint as="offset" />
          </mxGeometry>
        </mxCell>
        <mxCell id="--CWS9bQHItolgk0J9HZ-55" style="edgeStyle=orthogonalEdgeStyle;rounded=0;orthogonalLoop=1;jettySize=auto;html=1;entryX=1;entryY=0.5;entryDx=0;entryDy=0;" edge="1" parent="1" source="DCITLNQzlGKikIkjDxra-21" target="DCITLNQzlGKikIkjDxra-28">
          <mxGeometry relative="1" as="geometry">
            <Array as="points">
              <mxPoint x="180" y="960" />
              <mxPoint x="-200" y="960" />
              <mxPoint x="-200" y="1710" />
            </Array>
          </mxGeometry>
        </mxCell>
        <mxCell id="--CWS9bQHItolgk0J9HZ-66" value="Request service logging" style="edgeLabel;html=1;align=center;verticalAlign=middle;resizable=0;points=[];" vertex="1" connectable="0" parent="--CWS9bQHItolgk0J9HZ-55">
          <mxGeometry x="0.9151" relative="1" as="geometry">
            <mxPoint as="offset" />
          </mxGeometry>
        </mxCell>
        <mxCell id="--CWS9bQHItolgk0J9HZ-59" style="edgeStyle=orthogonalEdgeStyle;rounded=0;orthogonalLoop=1;jettySize=auto;html=1;entryX=0.5;entryY=0;entryDx=0;entryDy=0;" edge="1" parent="1" source="DCITLNQzlGKikIkjDxra-21" target="DCITLNQzlGKikIkjDxra-27">
          <mxGeometry relative="1" as="geometry">
            <Array as="points">
              <mxPoint x="180" y="960" />
              <mxPoint x="-200" y="960" />
              <mxPoint x="-200" y="1400" />
              <mxPoint x="-660" y="1400" />
            </Array>
          </mxGeometry>
        </mxCell>
        <mxCell id="--CWS9bQHItolgk0J9HZ-65" value="Request service monotoring" style="edgeLabel;html=1;align=center;verticalAlign=middle;resizable=0;points=[];" vertex="1" connectable="0" parent="--CWS9bQHItolgk0J9HZ-59">
          <mxGeometry x="0.7629" y="-2" relative="1" as="geometry">
            <mxPoint x="-1" as="offset" />
          </mxGeometry>
        </mxCell>
        <mxCell id="DCITLNQzlGKikIkjDxra-21" value="Request Service&amp;nbsp;(CRUD по заявкам, статусы, связи с файлами/комментариями)" style="rounded=0;whiteSpace=wrap;html=1;" parent="1" vertex="1">
          <mxGeometry x="120" y="820" width="120" height="80" as="geometry" />
        </mxCell>
        <mxCell id="DCITLNQzlGKikIkjDxra-23" value="Notification Workers" style="rounded=0;whiteSpace=wrap;html=1;" parent="1" vertex="1">
          <mxGeometry x="670" y="640" width="120" height="60" as="geometry" />
        </mxCell>
        <mxCell id="DCITLNQzlGKikIkjDxra-39" style="edgeStyle=orthogonalEdgeStyle;rounded=0;orthogonalLoop=1;jettySize=auto;html=1;entryX=0.5;entryY=1;entryDx=0;entryDy=0;exitX=1;exitY=0.5;exitDx=0;exitDy=0;" parent="1" source="--CWS9bQHItolgk0J9HZ-21" target="--CWS9bQHItolgk0J9HZ-38" edge="1">
          <mxGeometry relative="1" as="geometry">
            <Array as="points">
              <mxPoint x="1250" y="1510" />
            </Array>
            <mxPoint x="840" y="2000" as="sourcePoint" />
          </mxGeometry>
        </mxCell>
        <mxCell id="DCITLNQzlGKikIkjDxra-26" value="Read DB / Redis (статусы заявок по ролям&lt;span style=&quot;color: rgba(0, 0, 0, 0); font-family: monospace; font-size: 0px; text-align: start; text-wrap-mode: nowrap;&quot;&gt;%3CmxGraphModel%3E%3Croot%3E%3CmxCell%20id%3D%220%22%2F%3E%3CmxCell%20id%3D%221%22%20parent%3D%220%22%2F%3E%3CmxCell%20id%3D%222%22%20value%3D%22Request%20Service%22%20style%3D%22rounded%3D0%3BwhiteSpace%3Dwrap%3Bhtml%3D1%3B%22%20vertex%3D%221%22%20parent%3D%221%22%3E%3CmxGeometry%20x%3D%22120%22%20y%3D%22840%22%20width%3D%22120%22%20height%3D%2260%22%20as%3D%22geometry%22%2F%3E%3C%2FmxCell%3E%3C%2Froot%3E%3C%2FmxGraphModel%3E&lt;/span&gt;)" style="rounded=0;whiteSpace=wrap;html=1;" parent="1" vertex="1">
          <mxGeometry x="-87.5" y="1060" width="120" height="60" as="geometry" />
        </mxCell>
        <mxCell id="DCITLNQzlGKikIkjDxra-29" style="edgeStyle=orthogonalEdgeStyle;rounded=0;orthogonalLoop=1;jettySize=auto;html=1;entryX=0;entryY=0.5;entryDx=0;entryDy=0;startArrow=classic;startFill=1;" parent="1" source="DCITLNQzlGKikIkjDxra-27" target="DCITLNQzlGKikIkjDxra-28" edge="1">
          <mxGeometry relative="1" as="geometry" />
        </mxCell>
        <mxCell id="DCITLNQzlGKikIkjDxra-27" value="Monitoring (Prometheus)" style="rounded=0;whiteSpace=wrap;html=1;" parent="1" vertex="1">
          <mxGeometry x="-720" y="1680" width="120" height="60" as="geometry" />
        </mxCell>
        <mxCell id="DCITLNQzlGKikIkjDxra-28" value="Logging" style="rounded=0;whiteSpace=wrap;html=1;" parent="1" vertex="1">
          <mxGeometry x="-520" y="1680" width="120" height="60" as="geometry" />
        </mxCell>
        <mxCell id="--CWS9bQHItolgk0J9HZ-76" style="edgeStyle=orthogonalEdgeStyle;rounded=0;orthogonalLoop=1;jettySize=auto;html=1;entryX=0.5;entryY=0;entryDx=0;entryDy=0;" edge="1" parent="1" source="DCITLNQzlGKikIkjDxra-30" target="DCITLNQzlGKikIkjDxra-2">
          <mxGeometry relative="1" as="geometry">
            <Array as="points">
              <mxPoint x="-300" y="260" />
              <mxPoint x="180" y="260" />
            </Array>
          </mxGeometry>
        </mxCell>
        <mxCell id="--CWS9bQHItolgk0J9HZ-77" value="Request Service/User Service/Reporting Service" style="edgeLabel;html=1;align=center;verticalAlign=middle;resizable=0;points=[];" vertex="1" connectable="0" parent="--CWS9bQHItolgk0J9HZ-76">
          <mxGeometry x="0.1042" y="2" relative="1" as="geometry">
            <mxPoint as="offset" />
          </mxGeometry>
        </mxCell>
        <mxCell id="DCITLNQzlGKikIkjDxra-30" value="&lt;div&gt;Admin Panel&lt;/div&gt;" style="rounded=0;whiteSpace=wrap;html=1;" parent="1" vertex="1">
          <mxGeometry x="-360" y="280" width="120" height="60" as="geometry" />
        </mxCell>
        <mxCell id="--CWS9bQHItolgk0J9HZ-6" style="edgeStyle=orthogonalEdgeStyle;rounded=0;orthogonalLoop=1;jettySize=auto;html=1;entryX=0.5;entryY=0;entryDx=0;entryDy=0;" edge="1" parent="1" source="--CWS9bQHItolgk0J9HZ-1" target="--CWS9bQHItolgk0J9HZ-5">
          <mxGeometry relative="1" as="geometry" />
        </mxCell>
        <mxCell id="--CWS9bQHItolgk0J9HZ-72" style="edgeStyle=orthogonalEdgeStyle;rounded=0;orthogonalLoop=1;jettySize=auto;html=1;entryX=0.5;entryY=0;entryDx=0;entryDy=0;" edge="1" parent="1" source="--CWS9bQHItolgk0J9HZ-1" target="DCITLNQzlGKikIkjDxra-28">
          <mxGeometry relative="1" as="geometry" />
        </mxCell>
        <mxCell id="--CWS9bQHItolgk0J9HZ-74" value="File service logging" style="edgeLabel;html=1;align=center;verticalAlign=middle;resizable=0;points=[];" vertex="1" connectable="0" parent="--CWS9bQHItolgk0J9HZ-72">
          <mxGeometry x="0.6571" y="1" relative="1" as="geometry">
            <mxPoint as="offset" />
          </mxGeometry>
        </mxCell>
        <mxCell id="--CWS9bQHItolgk0J9HZ-73" style="edgeStyle=orthogonalEdgeStyle;rounded=0;orthogonalLoop=1;jettySize=auto;html=1;entryX=0.5;entryY=0;entryDx=0;entryDy=0;" edge="1" parent="1" source="--CWS9bQHItolgk0J9HZ-1" target="DCITLNQzlGKikIkjDxra-27">
          <mxGeometry relative="1" as="geometry">
            <Array as="points">
              <mxPoint x="-600" y="1440" />
              <mxPoint x="-600" y="1600" />
              <mxPoint x="-660" y="1600" />
            </Array>
          </mxGeometry>
        </mxCell>
        <mxCell id="--CWS9bQHItolgk0J9HZ-75" value="File servise monitoring" style="edgeLabel;html=1;align=center;verticalAlign=middle;resizable=0;points=[];" vertex="1" connectable="0" parent="--CWS9bQHItolgk0J9HZ-73">
          <mxGeometry x="0.6786" relative="1" as="geometry">
            <mxPoint as="offset" />
          </mxGeometry>
        </mxCell>
        <mxCell id="--CWS9bQHItolgk0J9HZ-1" value="File Storage Service" style="rounded=0;whiteSpace=wrap;html=1;" vertex="1" parent="1">
          <mxGeometry x="300" y="1410" width="120" height="60" as="geometry" />
        </mxCell>
        <mxCell id="--CWS9bQHItolgk0J9HZ-27" style="edgeStyle=orthogonalEdgeStyle;rounded=0;orthogonalLoop=1;jettySize=auto;html=1;entryX=0;entryY=0.5;entryDx=0;entryDy=0;" edge="1" parent="1" source="--CWS9bQHItolgk0J9HZ-4" target="--CWS9bQHItolgk0J9HZ-22">
          <mxGeometry relative="1" as="geometry" />
        </mxCell>
        <mxCell id="--CWS9bQHItolgk0J9HZ-28" style="edgeStyle=orthogonalEdgeStyle;rounded=0;orthogonalLoop=1;jettySize=auto;html=1;entryX=0;entryY=0.5;entryDx=0;entryDy=0;" edge="1" parent="1" source="--CWS9bQHItolgk0J9HZ-4" target="--CWS9bQHItolgk0J9HZ-21">
          <mxGeometry relative="1" as="geometry" />
        </mxCell>
        <mxCell id="--CWS9bQHItolgk0J9HZ-29" value="Метаданные файлов" style="edgeLabel;html=1;align=center;verticalAlign=middle;resizable=0;points=[];" vertex="1" connectable="0" parent="--CWS9bQHItolgk0J9HZ-28">
          <mxGeometry x="-0.5121" y="1" relative="1" as="geometry">
            <mxPoint as="offset" />
          </mxGeometry>
        </mxCell>
        <mxCell id="--CWS9bQHItolgk0J9HZ-4" value="S3" style="shape=cylinder3;whiteSpace=wrap;html=1;boundedLbl=1;backgroundOutline=1;size=15;" vertex="1" parent="1">
          <mxGeometry x="330" y="1590" width="60" height="80" as="geometry" />
        </mxCell>
        <mxCell id="--CWS9bQHItolgk0J9HZ-5" value="ClamAV (Антивирус)" style="shape=process;whiteSpace=wrap;html=1;backgroundOutline=1;" vertex="1" parent="1">
          <mxGeometry x="300" y="1500" width="120" height="60" as="geometry" />
        </mxCell>
        <mxCell id="--CWS9bQHItolgk0J9HZ-7" style="edgeStyle=orthogonalEdgeStyle;rounded=0;orthogonalLoop=1;jettySize=auto;html=1;exitX=0.5;exitY=1;exitDx=0;exitDy=0;entryX=0.5;entryY=0;entryDx=0;entryDy=0;entryPerimeter=0;" edge="1" parent="1" source="--CWS9bQHItolgk0J9HZ-5" target="--CWS9bQHItolgk0J9HZ-4">
          <mxGeometry relative="1" as="geometry" />
        </mxCell>
        <mxCell id="--CWS9bQHItolgk0J9HZ-19" style="edgeStyle=orthogonalEdgeStyle;rounded=0;orthogonalLoop=1;jettySize=auto;html=1;entryX=0.5;entryY=0;entryDx=0;entryDy=0;exitX=0.5;exitY=0;exitDx=0;exitDy=0;" edge="1" parent="1" source="--CWS9bQHItolgk0J9HZ-13" target="--CWS9bQHItolgk0J9HZ-18">
          <mxGeometry relative="1" as="geometry">
            <Array as="points">
              <mxPoint x="520" y="1180" />
              <mxPoint x="620" y="1180" />
            </Array>
          </mxGeometry>
        </mxCell>
        <mxCell id="--CWS9bQHItolgk0J9HZ-20" style="edgeStyle=orthogonalEdgeStyle;rounded=0;orthogonalLoop=1;jettySize=auto;html=1;entryX=0.5;entryY=0;entryDx=0;entryDy=0;exitX=0.5;exitY=0;exitDx=0;exitDy=0;" edge="1" parent="1" source="--CWS9bQHItolgk0J9HZ-13" target="--CWS9bQHItolgk0J9HZ-17">
          <mxGeometry relative="1" as="geometry">
            <Array as="points">
              <mxPoint x="520" y="1180" />
              <mxPoint x="420" y="1180" />
            </Array>
          </mxGeometry>
        </mxCell>
        <mxCell id="--CWS9bQHItolgk0J9HZ-26" style="edgeStyle=orthogonalEdgeStyle;rounded=0;orthogonalLoop=1;jettySize=auto;html=1;entryX=0.5;entryY=0;entryDx=0;entryDy=0;" edge="1" parent="1" source="--CWS9bQHItolgk0J9HZ-17" target="--CWS9bQHItolgk0J9HZ-1">
          <mxGeometry relative="1" as="geometry" />
        </mxCell>
        <mxCell id="--CWS9bQHItolgk0J9HZ-17" value="Вложения" style="rounded=0;whiteSpace=wrap;html=1;" vertex="1" parent="1">
          <mxGeometry x="360" y="1220" width="120" height="60" as="geometry" />
        </mxCell>
        <mxCell id="--CWS9bQHItolgk0J9HZ-24" style="edgeStyle=orthogonalEdgeStyle;rounded=0;orthogonalLoop=1;jettySize=auto;html=1;entryX=0.5;entryY=0;entryDx=0;entryDy=0;" edge="1" parent="1" source="--CWS9bQHItolgk0J9HZ-18" target="--CWS9bQHItolgk0J9HZ-21">
          <mxGeometry relative="1" as="geometry" />
        </mxCell>
        <mxCell id="--CWS9bQHItolgk0J9HZ-25" style="edgeStyle=orthogonalEdgeStyle;rounded=0;orthogonalLoop=1;jettySize=auto;html=1;entryX=0;entryY=0.5;entryDx=0;entryDy=0;" edge="1" parent="1" source="--CWS9bQHItolgk0J9HZ-18" target="--CWS9bQHItolgk0J9HZ-22">
          <mxGeometry relative="1" as="geometry">
            <Array as="points">
              <mxPoint x="620" y="1460" />
              <mxPoint x="540" y="1460" />
              <mxPoint x="540" y="1590" />
            </Array>
          </mxGeometry>
        </mxCell>
        <mxCell id="--CWS9bQHItolgk0J9HZ-18" value="Без вложения" style="rounded=0;whiteSpace=wrap;html=1;" vertex="1" parent="1">
          <mxGeometry x="560" y="1220" width="120" height="60" as="geometry" />
        </mxCell>
        <mxCell id="--CWS9bQHItolgk0J9HZ-21" value="Request DB (Write)&amp;nbsp;" style="rounded=0;whiteSpace=wrap;html=1;" vertex="1" parent="1">
          <mxGeometry x="560" y="1480" width="120" height="60" as="geometry" />
        </mxCell>
        <mxCell id="--CWS9bQHItolgk0J9HZ-23" style="edgeStyle=orthogonalEdgeStyle;rounded=0;orthogonalLoop=1;jettySize=auto;html=1;entryX=0.5;entryY=1;entryDx=0;entryDy=0;" edge="1" parent="1" source="--CWS9bQHItolgk0J9HZ-22" target="--CWS9bQHItolgk0J9HZ-38">
          <mxGeometry relative="1" as="geometry">
            <mxPoint x="560" y="670" as="targetPoint" />
            <Array as="points">
              <mxPoint x="1250" y="1590" />
            </Array>
          </mxGeometry>
        </mxCell>
        <mxCell id="--CWS9bQHItolgk0J9HZ-22" value="Реплика - Request DB (Write)&amp;nbsp;" style="rounded=0;whiteSpace=wrap;html=1;" vertex="1" parent="1">
          <mxGeometry x="560" y="1560" width="120" height="60" as="geometry" />
        </mxCell>
        <mxCell id="--CWS9bQHItolgk0J9HZ-51" style="edgeStyle=orthogonalEdgeStyle;rounded=0;orthogonalLoop=1;jettySize=auto;html=1;entryX=0;entryY=0.5;entryDx=0;entryDy=0;" edge="1" parent="1" source="--CWS9bQHItolgk0J9HZ-30" target="--CWS9bQHItolgk0J9HZ-38">
          <mxGeometry relative="1" as="geometry">
            <Array as="points">
              <mxPoint x="760" y="870" />
              <mxPoint x="760" y="1090" />
            </Array>
          </mxGeometry>
        </mxCell>
        <mxCell id="--CWS9bQHItolgk0J9HZ-52" value="новый комментарий" style="edgeLabel;html=1;align=center;verticalAlign=middle;resizable=0;points=[];" vertex="1" connectable="0" parent="--CWS9bQHItolgk0J9HZ-51">
          <mxGeometry x="-0.5134" y="-2" relative="1" as="geometry">
            <mxPoint as="offset" />
          </mxGeometry>
        </mxCell>
        <mxCell id="--CWS9bQHItolgk0J9HZ-30" value="Message/Comment Service" style="rounded=0;whiteSpace=wrap;html=1;" vertex="1" parent="1">
          <mxGeometry x="320" y="840" width="120" height="60" as="geometry" />
        </mxCell>
        <mxCell id="--CWS9bQHItolgk0J9HZ-32" style="edgeStyle=orthogonalEdgeStyle;rounded=0;orthogonalLoop=1;jettySize=auto;html=1;entryX=0;entryY=0.5;entryDx=0;entryDy=0;startArrow=classic;startFill=1;" edge="1" parent="1" source="--CWS9bQHItolgk0J9HZ-31" target="DCITLNQzlGKikIkjDxra-27">
          <mxGeometry relative="1" as="geometry" />
        </mxCell>
        <mxCell id="--CWS9bQHItolgk0J9HZ-71" style="edgeStyle=orthogonalEdgeStyle;rounded=0;orthogonalLoop=1;jettySize=auto;html=1;entryX=0;entryY=0.5;entryDx=0;entryDy=0;" edge="1" parent="1" source="--CWS9bQHItolgk0J9HZ-31" target="DCITLNQzlGKikIkjDxra-28">
          <mxGeometry relative="1" as="geometry">
            <Array as="points">
              <mxPoint x="-780" y="1710" />
              <mxPoint x="-780" y="1770" />
              <mxPoint x="-540" y="1770" />
              <mxPoint x="-540" y="1710" />
            </Array>
          </mxGeometry>
        </mxCell>
        <mxCell id="--CWS9bQHItolgk0J9HZ-79" style="edgeStyle=orthogonalEdgeStyle;rounded=0;orthogonalLoop=1;jettySize=auto;html=1;entryX=0.5;entryY=1;entryDx=0;entryDy=0;" edge="1" parent="1" source="--CWS9bQHItolgk0J9HZ-31" target="--CWS9bQHItolgk0J9HZ-22">
          <mxGeometry relative="1" as="geometry">
            <Array as="points">
              <mxPoint x="-860" y="1960" />
              <mxPoint x="620" y="1960" />
            </Array>
          </mxGeometry>
        </mxCell>
        <mxCell id="--CWS9bQHItolgk0J9HZ-80" style="edgeStyle=orthogonalEdgeStyle;rounded=0;orthogonalLoop=1;jettySize=auto;html=1;entryX=0.5;entryY=1;entryDx=0;entryDy=0;" edge="1" parent="1" source="--CWS9bQHItolgk0J9HZ-31" target="--CWS9bQHItolgk0J9HZ-21">
          <mxGeometry relative="1" as="geometry">
            <Array as="points">
              <mxPoint x="-860" y="1960" />
              <mxPoint x="720" y="1960" />
              <mxPoint x="720" y="1550" />
              <mxPoint x="620" y="1550" />
            </Array>
          </mxGeometry>
        </mxCell>
        <mxCell id="--CWS9bQHItolgk0J9HZ-81" style="edgeStyle=orthogonalEdgeStyle;rounded=0;orthogonalLoop=1;jettySize=auto;html=1;entryX=0.5;entryY=1;entryDx=0;entryDy=0;" edge="1" parent="1" source="--CWS9bQHItolgk0J9HZ-31" target="--CWS9bQHItolgk0J9HZ-38">
          <mxGeometry relative="1" as="geometry">
            <Array as="points">
              <mxPoint x="-860" y="1960" />
              <mxPoint x="1250" y="1960" />
            </Array>
          </mxGeometry>
        </mxCell>
        <mxCell id="--CWS9bQHItolgk0J9HZ-83" value="в реальном времени" style="edgeLabel;html=1;align=center;verticalAlign=middle;resizable=0;points=[];" vertex="1" connectable="0" parent="--CWS9bQHItolgk0J9HZ-81">
          <mxGeometry x="0.7444" y="3" relative="1" as="geometry">
            <mxPoint y="-1" as="offset" />
          </mxGeometry>
        </mxCell>
        <mxCell id="--CWS9bQHItolgk0J9HZ-31" value="Reporting/Analytics Service" style="rounded=0;whiteSpace=wrap;html=1;" vertex="1" parent="1">
          <mxGeometry x="-920" y="1680" width="120" height="60" as="geometry" />
        </mxCell>
        <mxCell id="--CWS9bQHItolgk0J9HZ-53" style="edgeStyle=orthogonalEdgeStyle;rounded=0;orthogonalLoop=1;jettySize=auto;html=1;entryX=0.5;entryY=0;entryDx=0;entryDy=0;" edge="1" parent="1" source="--CWS9bQHItolgk0J9HZ-36" target="DCITLNQzlGKikIkjDxra-7">
          <mxGeometry relative="1" as="geometry">
            <Array as="points">
              <mxPoint x="-600" y="850" />
              <mxPoint x="-600" y="240" />
              <mxPoint x="-100" y="240" />
            </Array>
          </mxGeometry>
        </mxCell>
        <mxCell id="--CWS9bQHItolgk0J9HZ-54" value="проверка ролей / RBAC" style="edgeLabel;html=1;align=center;verticalAlign=middle;resizable=0;points=[];" vertex="1" connectable="0" parent="--CWS9bQHItolgk0J9HZ-53">
          <mxGeometry x="0.1619" y="3" relative="1" as="geometry">
            <mxPoint x="1" as="offset" />
          </mxGeometry>
        </mxCell>
        <mxCell id="--CWS9bQHItolgk0J9HZ-56" style="edgeStyle=orthogonalEdgeStyle;rounded=0;orthogonalLoop=1;jettySize=auto;html=1;entryX=0.5;entryY=0;entryDx=0;entryDy=0;" edge="1" parent="1" source="--CWS9bQHItolgk0J9HZ-36" target="DCITLNQzlGKikIkjDxra-28">
          <mxGeometry relative="1" as="geometry">
            <Array as="points">
              <mxPoint x="-510" y="1640" />
              <mxPoint x="-460" y="1640" />
            </Array>
          </mxGeometry>
        </mxCell>
        <mxCell id="--CWS9bQHItolgk0J9HZ-63" value="&lt;span style=&quot;color: rgba(0, 0, 0, 0); font-family: monospace; font-size: 0px; text-align: start; background-color: rgb(236, 236, 236);&quot;&gt;%3CmxGraphModel%3E%3Croot%3E%3CmxCell%20id%3D%220%22%2F%3E%3CmxCell%20id%3D%221%22%20parent%3D%220%22%2F%3E%3CmxCell%20id%3D%222%22%20value%3D%22User%20service%20monitoring%22%20style%3D%22edgeLabel%3Bhtml%3D1%3Balign%3Dcenter%3BverticalAlign%3Dmiddle%3Bresizable%3D0%3Bpoints%3D%5B%5D%3B%22%20vertex%3D%221%22%20connectable%3D%220%22%20parent%3D%221%22%3E%3CmxGeometry%20x%3D%22-633%22%20y%3D%221284%22%20as%3D%22geometry%22%2F%3E%3C%2FmxCell%3E%3C%2Froot%3E%3C%2FmxGraphModel%3EUs&lt;/span&gt;" style="edgeLabel;html=1;align=center;verticalAlign=middle;resizable=0;points=[];" vertex="1" connectable="0" parent="--CWS9bQHItolgk0J9HZ-56">
          <mxGeometry x="0.6807" y="-5" relative="1" as="geometry">
            <mxPoint as="offset" />
          </mxGeometry>
        </mxCell>
        <mxCell id="--CWS9bQHItolgk0J9HZ-64" value="User service logging" style="edgeLabel;html=1;align=center;verticalAlign=middle;resizable=0;points=[];" vertex="1" connectable="0" parent="--CWS9bQHItolgk0J9HZ-56">
          <mxGeometry x="0.6807" y="-6" relative="1" as="geometry">
            <mxPoint as="offset" />
          </mxGeometry>
        </mxCell>
        <mxCell id="--CWS9bQHItolgk0J9HZ-58" style="edgeStyle=orthogonalEdgeStyle;rounded=0;orthogonalLoop=1;jettySize=auto;html=1;entryX=0.5;entryY=0;entryDx=0;entryDy=0;" edge="1" parent="1" source="--CWS9bQHItolgk0J9HZ-36" target="DCITLNQzlGKikIkjDxra-27">
          <mxGeometry relative="1" as="geometry">
            <Array as="points">
              <mxPoint x="-510" y="1280" />
              <mxPoint x="-660" y="1280" />
            </Array>
          </mxGeometry>
        </mxCell>
        <mxCell id="--CWS9bQHItolgk0J9HZ-62" value="User service monitoring" style="edgeLabel;html=1;align=center;verticalAlign=middle;resizable=0;points=[];" vertex="1" connectable="0" parent="--CWS9bQHItolgk0J9HZ-58">
          <mxGeometry x="0.1012" y="4" relative="1" as="geometry">
            <mxPoint as="offset" />
          </mxGeometry>
        </mxCell>
        <mxCell id="--CWS9bQHItolgk0J9HZ-36" value="User Service&amp;nbsp;(CRUD по пользователям, роли)" style="rounded=0;whiteSpace=wrap;html=1;" vertex="1" parent="1">
          <mxGeometry x="-570" y="820" width="120" height="60" as="geometry" />
        </mxCell>
        <mxCell id="--CWS9bQHItolgk0J9HZ-39" style="edgeStyle=orthogonalEdgeStyle;rounded=0;orthogonalLoop=1;jettySize=auto;html=1;entryX=1;entryY=0.5;entryDx=0;entryDy=0;" edge="1" parent="1" source="--CWS9bQHItolgk0J9HZ-38" target="DCITLNQzlGKikIkjDxra-23">
          <mxGeometry relative="1" as="geometry">
            <Array as="points">
              <mxPoint x="1250" y="670" />
            </Array>
          </mxGeometry>
        </mxCell>
        <mxCell id="--CWS9bQHItolgk0J9HZ-40" style="edgeStyle=orthogonalEdgeStyle;rounded=0;orthogonalLoop=1;jettySize=auto;html=1;entryX=1;entryY=0.5;entryDx=0;entryDy=0;" edge="1" parent="1" source="--CWS9bQHItolgk0J9HZ-38" target="DCITLNQzlGKikIkjDxra-19">
          <mxGeometry relative="1" as="geometry">
            <Array as="points">
              <mxPoint x="1250" y="490" />
            </Array>
          </mxGeometry>
        </mxCell>
        <mxCell id="--CWS9bQHItolgk0J9HZ-38" value="KAFKA" style="rounded=1;whiteSpace=wrap;html=1;" vertex="1" parent="1">
          <mxGeometry x="1190" y="860" width="120" height="460" as="geometry" />
        </mxCell>
        <mxCell id="--CWS9bQHItolgk0J9HZ-46" style="edgeStyle=orthogonalEdgeStyle;rounded=0;orthogonalLoop=1;jettySize=auto;html=1;entryX=0;entryY=0.5;entryDx=0;entryDy=0;entryPerimeter=0;" edge="1" parent="1" source="--CWS9bQHItolgk0J9HZ-1" target="--CWS9bQHItolgk0J9HZ-4">
          <mxGeometry relative="1" as="geometry">
            <Array as="points">
              <mxPoint x="360" y="1480" />
              <mxPoint x="260" y="1480" />
              <mxPoint x="260" y="1630" />
            </Array>
          </mxGeometry>
        </mxCell>
        <mxCell id="--CWS9bQHItolgk0J9HZ-48" value="загрузка/скачивание" style="edgeLabel;html=1;align=center;verticalAlign=middle;resizable=0;points=[];" vertex="1" connectable="0" parent="--CWS9bQHItolgk0J9HZ-46">
          <mxGeometry x="0.2071" y="-1" relative="1" as="geometry">
            <mxPoint as="offset" />
          </mxGeometry>
        </mxCell>
      </root>
    </mxGraphModel>
  </diagram>
</mxfile>
